<?xml version="1.0" encoding="UTF-8" standalone="no"?>
<svg width="86px" height="69px" viewBox="0 0 86 69" version="1.1" xmlns="http://www.w3.org/2000/svg" xmlns:xlink="http://www.w3.org/1999/xlink">
    <!-- Generator: Sketch 40 (33762) - http://www.bohemiancoding.com/sketch -->
    <title>Group</title>
    <desc>Created with Sketch.</desc>
    <defs></defs>
    <g id="Page-1" stroke="none" stroke-width="1" fill="none" fill-rule="evenodd">
        <g id="Group" transform="translate(43.300000, 34.500000) scale(1, -1) translate(-43.300000, -34.500000) translate(0.300000, 0.000000)" fill="#000000">
            <path d="M33.3,66.5 C12.7,63.9 7.5,62.5 3.3,58.1 C-1,53.7 -1,49.2 3.1,26 C5.1,14.7 6.8,4.3 6.9,2.8 C7.1,0.1 7.3,2.13162821e-14 12.8,2.13162821e-14 C19.8,2.13162821e-14 27.7,1 27.7,2 C27.7,2.4 25.9,3.3 23.6,4 C15.4,6.7 14.7,13.8 22.4,15.9 C27.8,17.4 31.9,17.3 34.5,15.4 C37.8,13.1 37.3,9.7 33.1,6 C31.1,4.3 29.7,2.7 29.9,2.4 C30.4,2 52.5,3.9 54.7,4.6 C55.7,4.9 54.8,5.8 52.2,7.3 C50,8.5 47.6,10.8 46.7,12.2 C45.3,14.8 45.4,15.1 47.4,17.1 C50,19.8 59.8,21 62.2,19 C64.4,17.2 64.1,11.7 61.7,9.5 C58.2,6.3 59.3,5.7 67.5,6.4 C78,7.3 82.7,8.1 82.7,8.9 C82.7,9.6 76.8,9.1 66.2,7.5 C61.3,6.7 61.2,6.8 63,8.7 C65,11 65.3,18 63.5,19.8 C62.8,20.5 59.6,21 56.1,21 C43.8,21 40.7,13.2 50.4,6.8 L53.2,5 L47.2,5 C43.9,4.9 39.3,4.5 37,4.1 L32.7,3.3 L35.6,6.5 C40.8,12.5 37.4,18 28.4,18 C15.9,18 10.9,8.5 21,3.9 L25.2,2 L18.5,2 C14.9,2 11.2,1.7 10.3,1.4 C8.6,0.8 8.6,0.8 6.7,13 C6,17.1 4.8,23.7 4,27.5 C3.2,31.4 2.3,38.9 2,44.3 C1.4,54 1.4,54.1 4.3,57.1 C5.9,58.7 9.3,60.7 12.2,61.6 C25.2,65.5 74.1,68.7 76.5,65.8 C79.5,62 83.7,30.6 83.7,11.8 C83.7,10.2 84.2,9 84.7,9 C85.4,9 85.6,11 85.2,14.8 C84.9,17.9 84.2,27 83.7,35 C82.5,53.2 79.4,65.8 75.7,67.7 C71.9,69.6 54.8,69.1 33.3,66.5 L33.3,66.5 Z" id="Shape"></path>
            <path d="M21.7,53 C21.7,52.6 22.8,51.9 24.2,51.6 C25.6,51.2 28.1,49.1 29.8,46.7 C32.7,42.8 32.9,42 32.5,35.3 C32.3,30 31.7,27.6 30.2,25.9 C28.9,24.5 28.7,23.9 29.6,24.2 C31.9,24.9 34.7,31.2 34.7,35.8 C34.7,41.2 32.8,45.7 28.9,49.6 C25.9,52.7 21.7,54.6 21.7,53 L21.7,53 Z" id="Shape"></path>
            <path d="M12.5,43.9 C8.1,41.4 12.5,34.4 17.9,35.2 C21.1,35.6 23.2,40.2 21.5,43 C20.1,45.2 15.5,45.7 12.5,43.9 L12.5,43.9 Z M19.2,43 C19.6,42.4 19.3,42.1 18.6,42.2 C18,42.4 17.1,41.3 16.6,39.7 C16.2,38.2 16.3,37.2 16.7,37.5 C17.2,37.8 17.8,37.7 18.1,37.2 C18.4,36.7 17.8,36.3 16.9,36.3 C14.8,36.3 11.7,38.8 11.7,40.6 C11.7,43.2 17.9,45.1 19.2,43 L19.2,43 Z" id="Shape"></path>
        </g>
    </g>
</svg>